<svg xmlns="http://www.w3.org/2000/svg" viewBox="0 0 290.18 168.78"><defs><style>.cls-1{fill:#03c8d6;}.cls-2{fill:#f47820;}.cls-3{fill:#fcb716;}</style></defs><g id="Layer_2" data-name="Layer 2"><g id="Layer_1-2" data-name="Layer 1"><path class="cls-1" d="M73.26,129.26a84.39,84.39,0,0,0,155-33C213.27,133.74,173.8,182.86,73.26,129.26Z"/><path class="cls-1" d="M179,7.24A83.92,83.92,0,0,0,140.4.12,13,13,0,0,1,138,8a13,13,0,0,1-18.14,3.07,13,13,0,0,1-4.56-5.81,83.94,83.94,0,0,0-36.16,26C137.82,65.05,166.41,32.79,179,7.24Z"/><path class="cls-1" d="M212.73,34.38a83.85,83.85,0,0,0-16.12-16.56C178.05,44.07,134.42,88.06,67.65,50a84.1,84.1,0,0,0-6.38,22C160.58,122.87,198.64,71.5,212.73,34.38Z"/><path class="cls-1" d="M228.28,96.3a84.14,84.14,0,0,0,.64-18c-29.09,31.6-81.94,64-165,30.18a84.15,84.15,0,0,0,9.37,20.78C173.8,182.86,213.27,133.74,228.28,96.3Z"/><path class="cls-1" d="M228.92,78.3a84.46,84.46,0,0,0-16.19-43.92C198.64,71.5,160.58,122.87,61.27,72a84.71,84.71,0,0,0,2.62,36.46C147,142.32,199.83,109.9,228.92,78.3Z"/><path class="cls-1" d="M196.61,17.82c-1-.77-2-1.53-3-2.26A84.13,84.13,0,0,0,179,7.24C166.41,32.79,137.82,65.05,79.15,31.3,78,32.67,77,34.07,75.93,35.52A85.74,85.74,0,0,0,67.65,50C134.42,88.06,178.05,44.07,196.61,17.82Z"/><path class="cls-1" d="M138,8A13,13,0,0,0,140.4.12a84.59,84.59,0,0,0-25.09,5.16,13,13,0,0,0,4.56,5.81A13,13,0,0,0,138,8Z"/><path class="cls-2" d="M225.77,56.55c-.9-1.85-1.21-3.73-2.86-5.71,38.49-2.07,63.79,3.48,67,15.91,5.21,20.39-55.24,52.33-135,71.33S6.19,156,1,135.57C-2.39,122.34,21.26,105.3,60.48,89c.09,2.12.28,3.46.51,5.52-22.37,9.93-36.35,19.17-34.53,26.33,3.34,13.06,55.45,11.88,116.4-2.64S250.51,81.37,247.18,68.31c-1.06-4.14-7.94-6.6-17.6-7.89l-4,0-.84-2.8Z"/><path class="cls-3" d="M224.11,55.7a60.75,60.75,0,0,0-3-7.24c38.48-2.07,65,3.27,68.13,15.69,5.21,20.4-55.25,52.34-135,71.34S5.52,153.37.31,133c-3.37-13.23,20.88-31.31,60.1-47.58A48.18,48.18,0,0,0,60.63,91C38.26,101,24,111.14,25.79,118.31c3.33,13.05,55.44,11.87,116.39-2.65S249.84,78.78,246.5,65.72c-1.05-4.12-8-5.13-17.58-6.41l-3.58.06Z"/><path d="M99,88.87a5.89,5.89,0,0,1-2.72-.64,2.06,2.06,0,0,1-1.26-1.93V46.61a2,2,0,0,1,1.26-1.9A6.13,6.13,0,0,1,99,44.09a8.14,8.14,0,0,1,2.42.31,4.14,4.14,0,0,1,1.78,1.19A12.31,12.31,0,0,1,105,48.32l11.82,22.85V46.61a2,2,0,0,1,1.26-1.93,6.66,6.66,0,0,1,5.48,0,2,2,0,0,1,1.22,1.93V86.3a2.07,2.07,0,0,1-1.22,1.93,5.85,5.85,0,0,1-2.76.64,6.06,6.06,0,0,1-2.6-.55,4.17,4.17,0,0,1-1.93-2L103,61.74V86.3a2.06,2.06,0,0,1-1.23,1.93A5.82,5.82,0,0,1,99,88.87Z"/><path d="M139.23,88.87a5.9,5.9,0,0,1-2.73-.64,2,2,0,0,1-1.25-1.87V46.67a2.07,2.07,0,0,1,1.1-1.93,4.66,4.66,0,0,1,2.39-.65h21.38a2,2,0,0,1,1.93,1.11,4.87,4.87,0,0,1,.58,2.32A4.66,4.66,0,0,1,162,50a2.06,2.06,0,0,1-1.87,1H143.21V63.33h9.37a2.12,2.12,0,0,1,1.87,1,3.88,3.88,0,0,1,.65,2.23,4.09,4.09,0,0,1-.59,2.06,2.06,2.06,0,0,1-1.93,1h-9.37V86.36A2,2,0,0,1,142,88.23,5.85,5.85,0,0,1,139.23,88.87Z"/><path d="M181.86,88.87a5.78,5.78,0,0,1-2.75-.64,2.06,2.06,0,0,1-1.23-1.93v-35h-9a2.07,2.07,0,0,1-1.84-1.1,4.71,4.71,0,0,1-.67-2.51,5,5,0,0,1,.61-2.42,2,2,0,0,1,1.9-1.14h25.91a2,2,0,0,1,1.93,1.14,5.17,5.17,0,0,1,.58,2.42,4.88,4.88,0,0,1-.64,2.51,2.05,2.05,0,0,1-1.87,1.1h-8.94v35a2.06,2.06,0,0,1-1.26,1.93A5.9,5.9,0,0,1,181.86,88.87Z"/><path d="M97.6,122.08a3.74,3.74,0,0,1-1.57-.33,1.08,1.08,0,0,1-.73-1v-20.5a1.05,1.05,0,0,1,.83-1,5.21,5.21,0,0,1,1.79-.3,5.13,5.13,0,0,1,1.81.3,1,1,0,0,1,.81,1v18.22h9.87a1.29,1.29,0,0,1,1.16.56,2.16,2.16,0,0,1,.37,1.25,2.19,2.19,0,0,1-.37,1.23,1.27,1.27,0,0,1-1.16.57Z"/><path d="M120,122.08a5.27,5.27,0,0,1-1.49-.22,4.28,4.28,0,0,1-1.29-.6,1.09,1.09,0,0,1-.52-.89,1.78,1.78,0,0,1,0-.32l7.77-19.9a2,2,0,0,1,1.27-1,6.37,6.37,0,0,1,2.12-.35,6.26,6.26,0,0,1,2.13.35,1.94,1.94,0,0,1,1.25,1l7.77,19.9a1,1,0,0,1,.08.32,1.09,1.09,0,0,1-.54.87,4.3,4.3,0,0,1-1.31.62,5.27,5.27,0,0,1-1.49.22,3.32,3.32,0,0,1-1.11-.17,1,1,0,0,1-.62-.65l-1.53-4.21H123.3l-1.49,4.21a1,1,0,0,1-.65.65A3.49,3.49,0,0,1,120,122.08Zm4.39-8.26h7l-3.5-9.71Z"/><path d="M148.55,122.08a4.75,4.75,0,0,1-1.79-.33c-.56-.22-.83-.56-.83-1v-20.5c0-.45.27-.77.83-1a5,5,0,0,1,1.79-.32,6.44,6.44,0,0,1,1.59.16,2.9,2.9,0,0,1,1.17.62,6.08,6.08,0,0,1,1.14,1.4l7.78,11.81V100.25a1,1,0,0,1,.82-1,5.23,5.23,0,0,1,1.8-.3,5.17,5.17,0,0,1,1.81.3,1,1,0,0,1,.8,1v20.5a1.09,1.09,0,0,1-.8,1,4.75,4.75,0,0,1-1.81.33,5,5,0,0,1-1.72-.29,2.55,2.55,0,0,1-1.27-1l-8.69-12.72v12.69a1.09,1.09,0,0,1-.81,1A4.75,4.75,0,0,1,148.55,122.08Z"/><path d="M176.66,122.08a3.2,3.2,0,0,1-1.67-.38,1.08,1.08,0,0,1-.63-.92V100.25a1.08,1.08,0,0,1,.63-.92,3.2,3.2,0,0,1,1.67-.38h7.13a15.43,15.43,0,0,1,4.81.71A7.1,7.1,0,0,1,192,102a6.63,6.63,0,0,1,1.27,4.26v8.57a6.65,6.65,0,0,1-1.27,4.26,7.1,7.1,0,0,1-3.42,2.31,15.43,15.43,0,0,1-4.81.71Zm2.94-3.61h4.23a4.85,4.85,0,0,0,3.1-.9,3.33,3.33,0,0,0,1.13-2.77v-8.57a3.33,3.33,0,0,0-1.13-2.77,4.85,4.85,0,0,0-3.1-.9H179.6Z"/><path d="M249.39,11.44l1.54,9.93,9.93,1.54-9.93,1.54-1.54,9.93-1.54-9.93-9.92-1.54,9.92-1.54Z"/><path d="M166.14,145.73l.79,5.11,5.11.79-5.11.79-.79,5.11-.79-5.11-5.11-.79,5.11-.79Z"/><path d="M208.89,67.18l1.22,7.87L218,76.27l-7.87,1.22-1.22,7.87-1.22-7.87-7.87-1.22,7.87-1.22Z"/><path d="M34.35,51.5l2.11,13.58L50,67.18,36.46,69.29,34.35,82.87,32.24,69.29,18.67,67.18l13.57-2.1Z"/><path d="M249.39,122.86l2.11,13.58,13.58,2.1-13.58,2.11-2.11,13.58-2.11-13.58-13.57-2.11,13.57-2.1Z"/></g></g></svg>